<svg width="19" height="23" viewBox="0 0 19 23" fill="none" xmlns="http://www.w3.org/2000/svg">
<path d="M0.475248 19.3406H3.8003V22.4774V23H4.27543H6.7542H7.22909V22.4774V19.3406H14.7251H15.2002V18.8179V16.7269V16.2043H14.7251H7.22884V14.2766H12.2757C14.2548 14.2766 15.87 13.613 17.1222 12.2839C18.3739 10.9561 19 9.24095 19 7.13832C19 5.0371 18.3739 3.32191 17.1222 1.99279C15.8703 0.664985 14.2547 0 12.2757 0H4.27518H3.80005V0.522601V10.7977L0.000117804 10.798L0.000208428 11.3203L0.000117804 13.754C0.000117804 13.9066 0 14.2766 0 14.2766C0 14.2766 0.336359 14.2766 0.475248 14.2766H3.8003V16.2042C3.8003 16.2042 0.613891 16.2042 0.475248 16.2042C0.336605 16.2042 0.000117804 16.2042 0.000117804 16.2042C0.000117804 16.2042 0.000117804 16.5749 0.000117804 16.7269C0.000117804 16.8789 0.000117804 18.8179 0.000117804 18.8179V19.3406H0.475248ZM7.22884 3.47975H11.9788C13.0277 3.47975 13.8736 3.81723 14.5171 4.4924C15.1602 5.16762 15.4819 6.05002 15.4819 7.13859C15.4819 8.22771 15.1602 9.11038 14.5171 9.78478C13.8736 10.4605 13.0276 10.798 11.9788 10.798H7.22884V3.47975Z" fill="#0D0417"/>
</svg>
